<svg width="12" height="19" viewBox="0 0 12 19" fill="none" xmlns="http://www.w3.org/2000/svg">
<path d="M10.78 0.389648H8.28394C7.59253 0.389648 6.96558 0.495117 6.40308 0.706055C5.82886 0.916992 5.34253 1.21289 4.94409 1.59375C4.54565 1.97461 4.24097 2.44043 4.03003 2.99121C3.80737 3.53027 3.69604 4.13965 3.69604 4.81934V6.8584H1.19995C1.09448 6.8584 1.00366 6.89355 0.92749 6.96387C0.851318 7.03418 0.813232 7.12207 0.813232 7.22754V10.1982C0.813232 10.292 0.851318 10.377 0.92749 10.4531C1.00366 10.5293 1.09448 10.5674 1.19995 10.5674H3.69604V18.0381C3.69604 18.1318 3.73413 18.2139 3.8103 18.2842C3.88647 18.3545 3.97729 18.3896 4.08276 18.3896H7.33472C7.4519 18.3896 7.54858 18.3545 7.62476 18.2842C7.70093 18.2139 7.73901 18.126 7.73901 18.0205V10.5498H10.657C10.7625 10.5498 10.8533 10.5146 10.9294 10.4443C11.0056 10.374 11.0437 10.2861 11.0437 10.1807V7.22754C11.0437 7.16895 11.0349 7.11914 11.0173 7.07812C10.9998 7.03711 10.9734 6.99902 10.9382 6.96387C10.8914 6.92871 10.8445 6.90234 10.7976 6.88477C10.7507 6.86719 10.7039 6.8584 10.657 6.8584H7.73901V5.13574C7.73901 4.71387 7.82104 4.40039 7.98511 4.19531C8.14917 3.99023 8.51831 3.8877 9.09253 3.8877H10.7625C10.8796 3.8877 10.9763 3.84961 11.0525 3.77344C11.1287 3.69727 11.1667 3.6123 11.1667 3.51855V0.758789C11.1667 0.665039 11.1287 0.580078 11.0525 0.503906C10.9763 0.427734 10.8855 0.389648 10.78 0.389648Z" fill="white"/>
</svg>
