<svg width="22" height="23" viewBox="0 0 22 23" fill="none" xmlns="http://www.w3.org/2000/svg">
<path d="M20.9531 2.0625H11.9141V0.4375C11.9141 0.325781 11.8227 0.234375 11.7109 0.234375H10.2891C10.1773 0.234375 10.0859 0.325781 10.0859 0.4375V2.0625H1.04688C0.597461 2.0625 0.234375 2.42559 0.234375 2.875V16.0781C0.234375 16.5275 0.597461 16.8906 1.04688 16.8906H10.0961V17.7031L5.91172 20.4479C5.81777 20.5088 5.79238 20.6332 5.85332 20.7271L6.62266 21.9256V21.9281C6.68359 22.0221 6.81055 22.0475 6.90449 21.9865L11 19.3002L15.0955 21.9865C15.1895 22.0475 15.3164 22.0221 15.3773 21.9281V21.9256L16.1467 20.7271C16.2076 20.6332 16.1797 20.5088 16.0883 20.4479L11.9141 17.7107V16.8906H20.9531C21.4025 16.8906 21.7656 16.5275 21.7656 16.0781V2.875C21.7656 2.42559 21.4025 2.0625 20.9531 2.0625ZM19.9375 15.0625H2.0625V3.89062H19.9375V15.0625Z" fill="#1B99D4"/>
</svg>
