<svg xmlns="http://www.w3.org/2000/svg" width="166" height="42" fill="none">
  <path fill="#1B99D4" d="M21.6 41.7C9.9 41.5.4 32.1.6 20.7.8 9.4 10.8 0 22.3.3c11.7.3 21 9.7 20.9 21.1-.1 11.3-9.8 20.5-21.6 20.3Z"/>
  <path fill="#fff" d="M23.417 21.4c2.5-1.1 4.5-.4 6.1 1.6 2 2.5 3.1 5.3 2.6 8.5-.1 1.1-1.5 1.2-2.4 1.5-5.1 1.6-10.2 1.3-15.4-.1-2-.6-2.6-1.7-2.2-3.5.5-2.7 1.7-5.1 3.6-7.1 1.3-1.4 2.8-2 4.6-1 1-.3 1.8 0 1.8 1.1.1 2.2.1 4.5 0 6.7 0-1.8 0-3.7.1-5.5.2-.8-.3-2 1.2-2.2Zm-1.1-1.2a6.1 6.1 0 1 0 0-12.2 6.1 6.1 0 0 0 0 12.2Z"/>
  <path fill="#1B99D4" d="M20.267 19.8c1 .1 1.9.1 2.9.2v.7c-1.8 2.6 0 5.7-1.6 8.4v-5.6c0-1.1.4-2.5-1.3-2.9v-.8Z"/>
  <path fill="#1B99D4" d="M22.867 21.4h-1.4v7.7h1.4v-7.7Z"/>
  <path fill="#000" d="M71.413 14.287V29.94H67.6v-9.386l-3.5 9.386h-3.077L57.5 20.53v9.41h-3.813V14.286h4.504l4.392 10.836 4.348-10.836h4.482Zm15.45 3.211-7.803 18.35h-4.103l2.854-6.332-5.061-12.018h4.258l2.877 7.781 2.854-7.78h4.124Zm15.716 13.356v3.656H88.755v-3.656h13.824Zm14.32-16.567v3.055h-4.147V29.94h-3.813V17.341h-4.147v-3.055h12.107Zm14.199 3.211V29.94h-3.813v-1.694c-.386.55-.914.996-1.583 1.338-.654.327-1.382.49-2.185.49-.951 0-1.791-.208-2.519-.624-.729-.431-1.294-1.048-1.695-1.85-.401-.803-.602-1.747-.602-2.832v-7.269h3.79v6.756c0 .832.216 1.479.647 1.94.431.46 1.011.69 1.739.69.743 0 1.331-.23 1.762-.69.431-.461.646-1.108.646-1.94v-6.756h3.813Zm9.673 9.208v3.233h-1.94c-1.382 0-2.46-.334-3.233-1.003-.773-.684-1.159-1.791-1.159-3.322v-4.95h-1.517v-3.166h1.517v-3.032h3.812v3.032h2.497v3.166h-2.497v4.994c0 .372.089.64.268.803.178.164.475.245.892.245h1.36Zm7.787 3.412c-1.219 0-2.319-.26-3.3-.78a5.812 5.812 0 0 1-2.297-2.23c-.55-.966-.825-2.096-.825-3.39 0-1.278.283-2.4.848-3.366a5.722 5.722 0 0 1 2.318-2.252c.981-.52 2.081-.78 3.3-.78 1.219 0 2.319.26 3.3.78a5.73 5.73 0 0 1 2.319 2.252c.565.966.847 2.088.847 3.367 0 1.278-.29 2.408-.869 3.389a5.74 5.74 0 0 1-2.341 2.23c-.981.52-2.081.78-3.3.78Zm0-3.3c.728 0 1.345-.268 1.85-.803.521-.535.781-1.3.781-2.296 0-.996-.253-1.762-.758-2.297a2.38 2.38 0 0 0-1.829-.802c-.743 0-1.36.267-1.85.802-.491.52-.736 1.286-.736 2.297 0 .996.238 1.761.713 2.296a2.38 2.38 0 0 0 1.829.803Zm12.346-7.246a4.924 4.924 0 0 1 1.672-1.606 4.251 4.251 0 0 1 2.23-.602V21.4h-1.048c-.952 0-1.665.208-2.141.624-.476.402-.713 1.115-.713 2.14v5.775h-3.813V17.5h3.813v2.073Z"/>
</svg>
